<svg width="184" height="227" viewBox="0 0 184 227" fill="none" xmlns="http://www.w3.org/2000/svg">
<path fill-rule="evenodd" clip-rule="evenodd" d="M170.981 102.255C169.455 104.93 165.606 104.949 164.053 102.29L149.08 76.6578V151.002C149.08 158.652 148.429 165.61 147.127 171.876C145.825 178.061 143.668 183.351 140.657 187.745C137.646 192.14 133.659 195.517 128.694 197.877C123.73 200.237 117.627 201.417 110.384 201.417C103.304 201.417 97.3223 200.237 92.4395 197.877C87.5566 195.517 83.569 192.18 80.4766 187.867C77.4655 183.473 75.2682 178.183 73.8848 171.998C72.5827 165.732 71.9316 158.733 71.9316 151.002V48.4629H37.2637V146.852C37.2637 159.221 38.4844 170.37 40.9258 180.299C43.4486 190.146 47.5583 198.528 53.2549 205.445C59.0329 212.363 66.5605 217.652 75.8379 221.314C85.1966 224.977 96.7119 226.808 110.384 226.808C123.812 226.808 135.164 225.058 144.441 221.559C153.8 217.978 161.368 212.77 167.146 205.934C173.006 199.098 177.238 190.715 179.842 180.787C182.446 170.859 183.748 159.547 183.748 146.852V79.8807L170.981 102.255Z" fill="url(#paint0_linear_4_39)"/>
<path d="M50.5359 6C52.0755 3.33333 55.9245 3.33333 57.4641 6L97.3013 75C98.8409 77.6667 96.9164 81 93.8372 81H14.1628C11.0836 81 9.15913 77.6667 10.6987 75L50.5359 6Z" fill="url(#paint1_linear_4_39)"/>
<defs>
<linearGradient id="paint0_linear_4_39" x1="39.2507" y1="38.8751" x2="868.877" y2="241.389" gradientUnits="userSpaceOnUse">
<stop stop-color="#B116E8"/>
<stop offset="1" stop-color="#09C5BA"/>
</linearGradient>
<linearGradient id="paint1_linear_4_39" x1="0.260334" y1="-5.80609" x2="115.109" y2="0.259218" gradientUnits="userSpaceOnUse">
<stop stop-color="#B116E8"/>
<stop offset="1" stop-color="#09C5BA"/>
</linearGradient>
</defs>
</svg>
