<svg width="862" height="227" viewBox="0 0 862 227" fill="none" xmlns="http://www.w3.org/2000/svg">
<path fill-rule="evenodd" clip-rule="evenodd" d="M164.053 102.29C165.606 104.949 169.455 104.93 170.981 102.255L183.748 79.8807V146.852C183.748 159.547 182.446 170.859 179.842 180.787C177.238 190.715 173.006 199.098 167.146 205.934C161.368 212.77 153.8 217.978 144.441 221.559C135.164 225.058 123.812 226.808 110.384 226.808C96.7119 226.808 85.1966 224.977 75.8379 221.314C66.5605 217.652 59.0329 212.363 53.2549 205.445C47.5583 198.528 43.4486 190.146 40.9258 180.299C38.4844 170.37 37.2637 159.221 37.2637 146.852V48.4629H71.9316V151.002C71.9316 158.733 72.5827 165.732 73.8848 171.998C75.2682 178.183 77.4655 183.473 80.4766 187.867C83.569 192.18 87.5566 195.517 92.4395 197.877C97.3223 200.237 103.304 201.417 110.384 201.417C117.627 201.417 123.73 200.237 128.694 197.877C133.659 195.517 137.646 192.14 140.657 187.745C143.668 183.351 145.825 178.061 147.127 171.876C148.429 165.61 149.08 158.652 149.08 151.002V76.6578L164.053 102.29ZM316.927 52.0029C310.254 49.6429 302.645 48.4629 294.1 48.4629H226.106V224H260.164V155.885C263.257 156.21 266.797 156.536 270.784 156.861C274.853 157.105 279.166 157.228 283.724 157.228C293.571 157.228 302.482 156.048 310.457 153.687C318.432 151.327 325.228 147.828 330.843 143.189C336.458 138.551 340.771 132.773 343.782 125.855C346.793 118.857 348.299 110.719 348.299 101.441C348.299 92.8965 347.078 85.3281 344.637 78.7363C342.195 72.1445 338.655 66.6107 334.017 62.1348C329.378 57.6588 323.681 54.2816 316.927 52.0029ZM267.854 133.546C265.332 133.302 262.768 132.976 260.164 132.569V71.9004H280.184C286.206 71.9004 291.333 72.47 295.564 73.6094C299.796 74.6673 303.255 76.417 305.94 78.8584C308.626 81.2998 310.579 84.5143 311.8 88.5019C313.021 92.4082 313.631 97.2096 313.631 102.906C313.631 108.684 312.817 113.526 311.189 117.433C309.562 121.339 307.12 124.513 303.865 126.954C300.691 129.395 296.704 131.145 291.902 132.203C287.182 133.261 281.689 133.79 275.423 133.79C272.981 133.79 270.459 133.709 267.854 133.546ZM458.528 50.0498C450.39 48.9918 441.52 48.4629 431.917 48.4629H384.31V224H431.917C441.52 224 450.39 223.471 458.528 222.413C466.666 221.274 474.153 219.402 480.989 216.798C488.883 213.705 495.516 209.636 500.887 204.591C506.339 199.464 510.734 193.482 514.07 186.646C517.407 179.729 519.767 171.998 521.15 163.453C522.615 154.908 523.348 145.672 523.348 135.743C523.348 125.815 522.656 116.619 521.272 108.155C519.889 99.6103 517.57 91.9199 514.314 85.084C511.059 78.248 506.705 72.348 501.253 67.3838C495.8 62.3382 489.046 58.3099 480.989 55.2988C474.153 52.776 466.666 51.0264 458.528 50.0498ZM456.209 196.29C447.745 198.243 436.8 199.22 423.372 199.22H418.489V73.2431H429.476C441.194 73.2431 450.879 74.2604 458.528 76.2949C466.178 78.3294 472.241 81.7881 476.717 86.6709C481.193 91.4723 484.285 97.942 485.994 106.08C487.785 114.218 488.68 124.391 488.68 136.598C488.68 148.805 487.785 158.937 485.994 166.993C484.204 174.968 480.908 181.357 476.106 186.158C471.305 190.96 464.673 194.337 456.209 196.29ZM707.918 224L641.634 48.4629H607.454L541.17 224H575.594L595.613 170.045H653.475L673.494 224H707.918ZM604.646 145.509L624.544 84.7178L644.441 145.509H604.646ZM861.604 73.4873V48.4629H724.52V73.4873H776.277V224H810.335V73.4873H861.604Z" fill="url(#paint0_linear_4_12)"/>
<path d="M50.5359 5.99998C52.0755 3.33331 55.9245 3.33332 57.4641 5.99998L97.3013 75C98.8409 77.6667 96.9164 81 93.8372 81H14.1628C11.0836 81 9.15913 77.6666 10.6987 75L50.5359 5.99998Z" fill="url(#paint1_linear_4_12)"/>
<path d="M50.5359 5.99998C52.0755 3.33331 55.9245 3.33332 57.4641 5.99998L97.3013 75C98.8409 77.6667 96.9164 81 93.8372 81H14.1628C11.0836 81 9.15913 77.6666 10.6987 75L50.5359 5.99998Z" fill="url(#paint2_linear_4_12)"/>
<defs>
<linearGradient id="paint0_linear_4_12" x1="39.2507" y1="38.875" x2="868.877" y2="241.389" gradientUnits="userSpaceOnUse">
<stop stop-color="#B116E8"/>
<stop offset="1" stop-color="#09C5BA"/>
</linearGradient>
<linearGradient id="paint1_linear_4_12" x1="54" y1="-1.52588e-05" x2="54" y2="108" gradientUnits="userSpaceOnUse">
<stop stop-color="#D9D9D9"/>
<stop offset="1" stop-color="#D9D9D9" stop-opacity="0"/>
</linearGradient>
<linearGradient id="paint2_linear_4_12" x1="0.260334" y1="-5.8061" x2="115.109" y2="0.259203" gradientUnits="userSpaceOnUse">
<stop stop-color="#B116E8"/>
<stop offset="1" stop-color="#09C5BA"/>
</linearGradient>
</defs>
</svg>
